<svg width="223" height="197" viewBox="0 0 223 197" fill="none" xmlns="http://www.w3.org/2000/svg">
<path d="M60.3332 125V115.512H63.7252V114.328H55.6292V115.512H59.0052V125H60.3332ZM69.9167 125.192C73.0687 125.192 75.2287 122.824 75.2287 119.672C75.2287 116.52 73.0687 114.152 69.9167 114.152C66.7647 114.152 64.6207 116.52 64.6207 119.672C64.6207 122.824 66.7647 125.192 69.9167 125.192ZM69.9167 124.008C67.5167 124.008 65.9967 122.152 65.9967 119.672C65.9967 117.176 67.5167 115.336 69.9167 115.336C72.3007 115.336 73.8527 117.176 73.8527 119.672C73.8527 122.152 72.3007 124.008 69.9167 124.008ZM78.6151 125V120.76H81.5751C83.7031 120.76 84.9191 119.288 84.9191 117.544C84.9191 115.8 83.7191 114.328 81.5751 114.328H77.2871V125H78.6151ZM81.4151 119.576H78.6151V115.512H81.4151C82.6791 115.512 83.5431 116.344 83.5431 117.544C83.5431 118.744 82.6791 119.576 81.4151 119.576ZM94.2743 125.192C97.1543 125.192 98.2103 123.592 98.2103 122.056C98.2103 118.072 91.8903 119.448 91.8903 117.048C91.8903 116.04 92.8183 115.352 94.0823 115.352C95.2503 115.352 96.3703 115.736 97.1703 116.632L97.9703 115.656C97.0743 114.712 95.8103 114.152 94.1943 114.152C92.0823 114.152 90.5143 115.368 90.5143 117.128C90.5143 120.936 96.8343 119.4 96.8343 122.152C96.8343 122.984 96.2263 124.008 94.3223 124.008C92.8183 124.008 91.6663 123.272 90.9783 122.472L90.1783 123.496C91.0583 124.488 92.4343 125.192 94.2743 125.192ZM105.057 125.192C108.209 125.192 110.369 122.824 110.369 119.672C110.369 116.52 108.209 114.152 105.057 114.152C101.905 114.152 99.7613 116.52 99.7613 119.672C99.7613 122.824 101.905 125.192 105.057 125.192ZM105.057 124.008C102.657 124.008 101.137 122.152 101.137 119.672C101.137 117.176 102.657 115.336 105.057 115.336C107.441 115.336 108.993 117.176 108.993 119.672C108.993 122.152 107.441 124.008 105.057 124.008ZM113.756 125V120.136H119.308V118.952H113.756V115.512H119.42V114.328H112.428V125H113.756ZM125.208 125V115.512H128.6V114.328H120.504V115.512H123.88V125H125.208ZM139.965 125L143.021 114.328H141.533L139.181 123.224L136.733 114.328H135.629L133.181 123.224L130.813 114.328H129.341L132.381 125H133.821L136.173 116.392L138.525 125H139.965ZM152.876 125L148.588 114.328H146.94L142.636 125H144.156L145.1 122.616H150.412L151.356 125H152.876ZM150.028 121.448H145.5L147.756 115.688L150.028 121.448ZM162.015 125L159.135 120.648C160.591 120.52 161.919 119.464 161.919 117.544C161.919 115.576 160.511 114.328 158.559 114.328H154.271V125H155.599V120.76H157.743L160.447 125H162.015ZM158.399 119.592H155.599V115.512H158.399C159.663 115.512 160.543 116.328 160.543 117.544C160.543 118.744 159.663 119.592 158.399 119.592ZM171.013 125V123.816H165.349V120.136H170.901V118.952H165.349V115.512H171.013V114.328H164.021V125H171.013ZM62.6851 140C66.0131 140 68.1571 137.712 68.1571 134.672C68.1571 131.648 66.0131 129.328 62.6851 129.328H59.0371V140H62.6851ZM62.6851 138.816H60.3651V130.512H62.6851C65.3251 130.512 66.7811 132.368 66.7811 134.672C66.7811 136.96 65.2771 138.816 62.6851 138.816ZM77.2322 140V138.816H71.5682V135.136H77.1202V133.952H71.5682V130.512H77.2322V129.328H70.2402V140H77.2322ZM84.1976 140L88.4856 129.328H86.9656L83.3656 138.544L79.7656 129.328H78.2456L82.5496 140H84.1976ZM96.8728 140V138.816H91.2088V135.136H96.7608V133.952H91.2088V130.512H96.8728V129.328H89.8808V140H96.8728ZM105.102 140V138.816H100.142V129.328H98.8142V140H105.102ZM111.198 140.192C114.35 140.192 116.51 137.824 116.51 134.672C116.51 131.52 114.35 129.152 111.198 129.152C108.046 129.152 105.902 131.52 105.902 134.672C105.902 137.824 108.046 140.192 111.198 140.192ZM111.198 139.008C108.798 139.008 107.278 137.152 107.278 134.672C107.278 132.176 108.798 130.336 111.198 130.336C113.582 130.336 115.134 132.176 115.134 134.672C115.134 137.152 113.582 139.008 111.198 139.008ZM119.896 140V135.76H122.856C124.984 135.76 126.2 134.288 126.2 132.544C126.2 130.8 125 129.328 122.856 129.328H118.568V140H119.896ZM122.696 134.576H119.896V130.512H122.696C123.96 130.512 124.824 131.344 124.824 132.544C124.824 133.744 123.96 134.576 122.696 134.576ZM138.407 140V129.328H136.503L133.191 137.552L129.863 129.328H127.959V140H129.287V131.024L132.919 140H133.463L137.079 131.024V140H138.407ZM147.888 140V138.816H142.224V135.136H147.776V133.952H142.224V130.512H147.888V129.328H140.896V140H147.888ZM158.838 140V129.328H157.51V137.664L151.366 129.328H150.006V140H151.334V131.488L157.558 140H158.838ZM165.302 140V130.512H168.694V129.328H160.598V130.512H163.974V140H165.302ZM75.6478 155.192C77.5358 155.192 78.8158 154.296 79.7118 153.064L78.5918 152.456C77.9838 153.352 76.8638 154.008 75.6478 154.008C73.3118 154.008 71.5358 152.2 71.5358 149.672C71.5358 147.112 73.3118 145.336 75.6478 145.336C76.8638 145.336 77.9838 145.976 78.5918 146.888L79.6958 146.264C78.8478 145.048 77.5358 144.152 75.6478 144.152C72.5758 144.152 70.1598 146.392 70.1598 149.672C70.1598 152.952 72.5758 155.192 75.6478 155.192ZM86.2683 155.192C89.4203 155.192 91.5803 152.824 91.5803 149.672C91.5803 146.52 89.4203 144.152 86.2683 144.152C83.1163 144.152 80.9723 146.52 80.9723 149.672C80.9723 152.824 83.1163 155.192 86.2683 155.192ZM86.2683 154.008C83.8683 154.008 82.3483 152.152 82.3483 149.672C82.3483 147.176 83.8683 145.336 86.2683 145.336C88.6523 145.336 90.2043 147.176 90.2043 149.672C90.2043 152.152 88.6523 154.008 86.2683 154.008ZM104.087 155V144.328H102.183L98.8706 152.552L95.5426 144.328H93.6386V155H94.9666V146.024L98.5986 155H99.1426L102.759 146.024V155H104.087ZM107.904 155V150.76H110.864C112.992 150.76 114.208 149.288 114.208 147.544C114.208 145.8 113.008 144.328 110.864 144.328H106.576V155H107.904ZM110.704 149.576H107.904V145.512H110.704C111.968 145.512 112.832 146.344 112.832 147.544C112.832 148.744 111.968 149.576 110.704 149.576ZM123.868 155L119.58 144.328H117.932L113.628 155H115.148L116.092 152.616H121.404L122.348 155H123.868ZM121.02 151.448H116.492L118.748 145.688L121.02 151.448ZM134.096 155V144.328H132.768V152.664L126.624 144.328H125.264V155H126.592V146.488L132.816 155H134.096ZM137.92 155V144.328H136.592V155H137.92ZM147.412 155V153.816H141.748V150.136H147.3V148.952H141.748V145.512H147.412V144.328H140.42V155H147.412ZM152.985 155.192C155.865 155.192 156.921 153.592 156.921 152.056C156.921 148.072 150.601 149.448 150.601 147.048C150.601 146.04 151.529 145.352 152.793 145.352C153.961 145.352 155.081 145.736 155.881 146.632L156.681 145.656C155.785 144.712 154.521 144.152 152.905 144.152C150.793 144.152 149.225 145.368 149.225 147.128C149.225 150.936 155.545 149.4 155.545 152.152C155.545 152.984 154.937 154.008 153.033 154.008C151.529 154.008 150.377 153.272 149.689 152.472L148.889 153.496C149.769 154.488 151.145 155.192 152.985 155.192Z" fill="black"/>
<path d="M60.3332 125V125.25H60.5832V125H60.3332ZM60.3332 115.512V115.262H60.0832V115.512H60.3332ZM63.7252 115.512V115.762H63.9752V115.512H63.7252ZM63.7252 114.328H63.9752V114.078H63.7252V114.328ZM55.6292 114.328V114.078H55.3792V114.328H55.6292ZM55.6292 115.512H55.3792V115.762H55.6292V115.512ZM59.0052 115.512H59.2552V115.262H59.0052V115.512ZM59.0052 125H58.7552V125.25H59.0052V125ZM60.5832 125V115.512H60.0832V125H60.5832ZM60.3332 115.762H63.7252V115.262H60.3332V115.762ZM63.9752 115.512V114.328H63.4752V115.512H63.9752ZM63.7252 114.078H55.6292V114.578H63.7252V114.078ZM55.3792 114.328V115.512H55.8792V114.328H55.3792ZM55.6292 115.762H59.0052V115.262H55.6292V115.762ZM58.7552 115.512V125H59.2552V115.512H58.7552ZM59.0052 125.25H60.3332V124.75H59.0052V125.25ZM69.9167 125.442C73.2193 125.442 75.4787 122.949 75.4787 119.672H74.9787C74.9787 122.699 72.918 124.942 69.9167 124.942V125.442ZM75.4787 119.672C75.4787 116.395 73.2193 113.902 69.9167 113.902V114.402C72.918 114.402 74.9787 116.645 74.9787 119.672H75.4787ZM69.9167 113.902C66.613 113.902 64.3707 116.396 64.3707 119.672H64.8707C64.8707 116.644 66.9163 114.402 69.9167 114.402V113.902ZM64.3707 119.672C64.3707 122.948 66.613 125.442 69.9167 125.442V124.942C66.9163 124.942 64.8707 122.7 64.8707 119.672H64.3707ZM69.9167 123.758C68.7857 123.758 67.8752 123.323 67.2445 122.605C66.6111 121.884 66.2467 120.862 66.2467 119.672H65.7467C65.7467 120.962 66.1423 122.108 66.8689 122.935C67.5982 123.765 68.6476 124.258 69.9167 124.258V123.758ZM66.2467 119.672C66.2467 118.474 66.6113 117.452 67.2443 116.733C67.8746 116.018 68.7851 115.586 69.9167 115.586V115.086C68.6483 115.086 67.5988 115.574 66.8691 116.403C66.1421 117.228 65.7467 118.374 65.7467 119.672H66.2467ZM69.9167 115.586C71.0401 115.586 71.9551 116.018 72.5918 116.734C73.2309 117.453 73.6027 118.475 73.6027 119.672H74.1027C74.1027 118.373 73.6985 117.227 72.9656 116.402C72.2303 115.574 71.1773 115.086 69.9167 115.086V115.586ZM73.6027 119.672C73.6027 120.861 73.2311 121.883 72.5916 122.604C71.9545 123.323 71.0394 123.758 69.9167 123.758V124.258C71.178 124.258 72.2308 123.765 72.9658 122.936C73.6983 122.109 74.1027 120.963 74.1027 119.672H73.6027ZM78.6151 125V125.25H78.8651V125H78.6151ZM78.6151 120.76V120.51H78.3651V120.76H78.6151ZM77.2871 114.328V114.078H77.0371V114.328H77.2871ZM77.2871 125H77.0371V125.25H77.2871V125ZM78.6151 119.576H78.3651V119.826H78.6151V119.576ZM78.6151 115.512V115.262H78.3651V115.512H78.6151ZM78.8651 125V120.76H78.3651V125H78.8651ZM78.6151 121.01H81.5751V120.51H78.6151V121.01ZM81.5751 121.01C82.6995 121.01 83.6025 120.62 84.2243 119.98C84.8443 119.343 85.1691 118.474 85.1691 117.544H84.6691C84.6691 118.358 84.3858 119.097 83.8659 119.632C83.3477 120.164 82.5787 120.51 81.5751 120.51V121.01ZM85.1691 117.544C85.1691 116.615 84.8489 115.746 84.2306 115.108C83.6104 114.468 82.707 114.078 81.5751 114.078V114.578C82.5871 114.578 83.3557 114.924 83.8716 115.456C84.3892 115.99 84.6691 116.729 84.6691 117.544H85.1691ZM81.5751 114.078H77.2871V114.578H81.5751V114.078ZM77.0371 114.328V125H77.5371V114.328H77.0371ZM77.2871 125.25H78.6151V124.75H77.2871V125.25ZM81.4151 119.326H78.6151V119.826H81.4151V119.326ZM78.8651 119.576V115.512H78.3651V119.576H78.8651ZM78.6151 115.762H81.4151V115.262H78.6151V115.762ZM81.4151 115.762C81.9915 115.762 82.4588 115.951 82.7802 116.259C83.1008 116.566 83.2931 117.006 83.2931 117.544H83.7931C83.7931 116.882 83.5533 116.306 83.1259 115.897C82.6994 115.489 82.1026 115.262 81.4151 115.262V115.762ZM83.2931 117.544C83.2931 118.082 83.1008 118.522 82.7802 118.829C82.4588 119.137 81.9915 119.326 81.4151 119.326V119.826C82.1026 119.826 82.6994 119.599 83.1259 119.191C83.5533 118.782 83.7931 118.206 83.7931 117.544H83.2931ZM97.1703 116.632L96.9838 116.799L97.1784 117.016L97.3637 116.79L97.1703 116.632ZM97.9703 115.656L98.1637 115.814L98.3035 115.644L98.1516 115.484L97.9703 115.656ZM90.9783 122.472L91.1679 122.309L90.969 122.078L90.7813 122.318L90.9783 122.472ZM90.1783 123.496L89.9813 123.342L89.8531 123.506L89.9913 123.662L90.1783 123.496ZM94.2743 125.442C95.7604 125.442 96.8124 125.028 97.4944 124.381C98.176 123.735 98.4603 122.881 98.4603 122.056H97.9603C97.9603 122.767 97.7166 123.481 97.1502 124.019C96.5842 124.556 95.6682 124.942 94.2743 124.942V125.442ZM98.4603 122.056C98.4603 120.98 98.0275 120.248 97.3779 119.734C96.7436 119.232 95.9112 118.945 95.1194 118.718C94.3058 118.484 93.5516 118.316 92.9817 118.055C92.7018 117.927 92.4909 117.787 92.351 117.625C92.2165 117.47 92.1403 117.286 92.1403 117.048H91.6403C91.6403 117.41 91.7617 117.708 91.9728 117.952C92.1785 118.19 92.4614 118.367 92.7739 118.51C93.389 118.791 94.2149 118.978 94.9813 119.198C95.7694 119.425 96.517 119.691 97.0677 120.126C97.6031 120.55 97.9603 121.14 97.9603 122.056H98.4603ZM92.1403 117.048C92.1403 116.629 92.3304 116.276 92.6641 116.021C93.002 115.762 93.4934 115.602 94.0823 115.602V115.102C93.4072 115.102 92.8026 115.286 92.3605 115.623C91.9142 115.964 91.6403 116.459 91.6403 117.048H92.1403ZM94.0823 115.602C95.1961 115.602 96.2415 115.967 96.9838 116.799L97.3568 116.465C96.4991 115.505 95.3045 115.102 94.0823 115.102V115.602ZM97.3637 116.79L98.1637 115.814L97.777 115.498L96.977 116.474L97.3637 116.79ZM98.1516 115.484C97.2043 114.486 95.8726 113.902 94.1943 113.902V114.402C95.7481 114.402 96.9444 114.938 97.789 115.828L98.1516 115.484ZM94.1943 113.902C91.9996 113.902 90.2643 115.18 90.2643 117.128H90.7643C90.7643 115.556 92.1651 114.402 94.1943 114.402V113.902ZM90.2643 117.128C90.2643 118.166 90.7022 118.856 91.354 119.334C91.988 119.799 92.82 120.06 93.6078 120.277C94.4167 120.5 95.1701 120.677 95.7331 120.964C96.0096 121.105 96.2211 121.265 96.3633 121.453C96.5021 121.637 96.5843 121.86 96.5843 122.152H97.0843C97.0843 121.756 96.9691 121.425 96.7622 121.152C96.5588 120.882 96.2765 120.68 95.9605 120.519C95.3385 120.201 94.5119 120.008 93.7408 119.795C92.9486 119.576 92.2007 119.335 91.6497 118.931C91.1164 118.54 90.7643 117.994 90.7643 117.128H90.2643ZM96.5843 122.152C96.5843 122.508 96.4547 122.902 96.1227 123.208C95.791 123.515 95.23 123.758 94.3223 123.758V124.258C95.3186 124.258 96.0137 123.989 96.4619 123.576C96.9099 123.162 97.0843 122.628 97.0843 122.152H96.5843ZM94.3223 123.758C92.9044 123.758 91.8177 123.065 91.1679 122.309L90.7888 122.635C91.5149 123.479 92.7322 124.258 94.3223 124.258V123.758ZM90.7813 122.318L89.9813 123.342L90.3753 123.65L91.1753 122.626L90.7813 122.318ZM89.9913 123.662C90.921 124.71 92.3662 125.442 94.2743 125.442V124.942C92.5024 124.942 91.1957 124.266 90.3653 123.33L89.9913 123.662ZM105.057 125.442C108.36 125.442 110.619 122.949 110.619 119.672H110.119C110.119 122.699 108.059 124.942 105.057 124.942V125.442ZM110.619 119.672C110.619 116.395 108.36 113.902 105.057 113.902V114.402C108.059 114.402 110.119 116.645 110.119 119.672H110.619ZM105.057 113.902C101.754 113.902 99.5113 116.396 99.5113 119.672H100.011C100.011 116.644 102.057 114.402 105.057 114.402V113.902ZM99.5113 119.672C99.5113 122.948 101.754 125.442 105.057 125.442V124.942C102.057 124.942 100.011 122.7 100.011 119.672H99.5113ZM105.057 123.758C103.926 123.758 103.016 123.323 102.385 122.605C101.752 121.884 101.387 120.862 101.387 119.672H100.887C100.887 120.962 101.283 122.108 102.009 122.935C102.739 123.765 103.788 124.258 105.057 124.258V123.758ZM101.387 119.672C101.387 118.474 101.752 117.452 102.385 116.733C103.015 116.018 103.926 115.586 105.057 115.586V115.086C103.789 115.086 102.739 115.574 102.01 116.403C101.283 117.228 100.887 118.374 100.887 119.672H101.387ZM105.057 115.586C106.181 115.586 107.096 116.018 107.732 116.734C108.372 117.453 108.743 118.475 108.743 119.672H109.243C109.243 118.373 108.839 117.227 108.106 116.402C107.371 115.574 106.318 115.086 105.057 115.086V115.586ZM108.743 119.672C108.743 120.861 108.372 121.883 107.732 122.604C107.095 123.323 106.18 123.758 105.057 123.758V124.258C106.319 124.258 107.371 123.765 108.106 122.936C108.839 122.109 109.243 120.963 109.243 119.672H108.743ZM113.756 125V125.25H114.006V125H113.756ZM113.756 120.136V119.886H113.506V120.136H113.756ZM119.308 120.136V120.386H119.558V120.136H119.308ZM119.308 118.952H119.558V118.702H119.308V118.952ZM113.756 118.952H113.506V119.202H113.756V118.952ZM113.756 115.512V115.262H113.506V115.512H113.756ZM119.42 115.512V115.762H119.67V115.512H119.42ZM119.42 114.328H119.67V114.078H119.42V114.328ZM112.428 114.328V114.078H112.178V114.328H112.428ZM112.428 125H112.178V125.25H112.428V125ZM114.006 125V120.136H113.506V125H114.006ZM113.756 120.386H119.308V119.886H113.756V120.386ZM119.558 120.136V118.952H119.058V120.136H119.558ZM119.308 118.702H113.756V119.202H119.308V118.702ZM114.006 118.952V115.512H113.506V118.952H114.006ZM113.756 115.762H119.42V115.262H113.756V115.762ZM119.67 115.512V114.328H119.17V115.512H119.67ZM119.42 114.078H112.428V114.578H119.42V114.078ZM112.178 114.328V125H112.678V114.328H112.178ZM112.428 125.25H113.756V124.75H112.428V125.25ZM125.208 125V125.25H125.458V125H125.208ZM125.208 115.512V115.262H124.958V115.512H125.208ZM128.6 115.512V115.762H128.85V115.512H128.6ZM128.6 114.328H128.85V114.078H128.6V114.328ZM120.504 114.328V114.078H120.254V114.328H120.504ZM120.504 115.512H120.254V115.762H120.504V115.512ZM123.88 115.512H124.13V115.262H123.88V115.512ZM123.88 125H123.63V125.25H123.88V125ZM125.458 125V115.512H124.958V125H125.458ZM125.208 115.762H128.6V115.262H125.208V115.762ZM128.85 115.512V114.328H128.35V115.512H128.85ZM128.6 114.078H120.504V114.578H128.6V114.078ZM120.254 114.328V115.512H120.754V114.328H120.254ZM120.504 115.762H123.88V115.262H120.504V115.762ZM123.63 115.512V125H124.13V115.512H123.63ZM123.88 125.25H125.208V124.75H123.88V125.25ZM139.965 125V125.25H140.154L140.206 125.069L139.965 125ZM143.021 114.328L143.262 114.397L143.353 114.078H143.021V114.328ZM141.533 114.328V114.078H141.341L141.291 114.264L141.533 114.328ZM139.181 123.224L138.94 123.29L139.186 124.184L139.423 123.288L139.181 123.224ZM136.733 114.328L136.974 114.262L136.924 114.078H136.733V114.328ZM135.629 114.328V114.078H135.439L135.388 114.262L135.629 114.328ZM133.181 123.224L132.94 123.288L133.177 124.181L133.422 123.29L133.181 123.224ZM130.813 114.328L131.055 114.264L131.005 114.078H130.813V114.328ZM129.341 114.328V114.078H129.01L129.101 114.396L129.341 114.328ZM132.381 125L132.141 125.068L132.192 125.25H132.381V125ZM133.821 125V125.25H134.012L134.062 125.066L133.821 125ZM136.173 116.392L136.414 116.326L136.173 115.443L135.932 116.326L136.173 116.392ZM138.525 125L138.284 125.066L138.334 125.25H138.525V125ZM140.206 125.069L143.262 114.397L142.781 114.259L139.725 124.931L140.206 125.069ZM143.021 114.078H141.533V114.578H143.021V114.078ZM141.291 114.264L138.939 123.16L139.423 123.288L141.775 114.392L141.291 114.264ZM139.422 123.158L136.974 114.262L136.492 114.394L138.94 123.29L139.422 123.158ZM136.733 114.078H135.629V114.578H136.733V114.078ZM135.388 114.262L132.94 123.158L133.422 123.29L135.87 114.394L135.388 114.262ZM133.423 123.16L131.055 114.264L130.572 114.392L132.94 123.288L133.423 123.16ZM130.813 114.078H129.341V114.578H130.813V114.078ZM129.101 114.396L132.141 125.068L132.622 124.932L129.582 114.26L129.101 114.396ZM132.381 125.25H133.821V124.75H132.381V125.25ZM134.062 125.066L136.414 116.458L135.932 116.326L133.58 124.934L134.062 125.066ZM135.932 116.458L138.284 125.066L138.766 124.934L136.414 116.326L135.932 116.458ZM138.525 125.25H139.965V124.75H138.525V125.25ZM152.876 125V125.25H153.246L153.108 124.907L152.876 125ZM148.588 114.328L148.82 114.235L148.757 114.078H148.588V114.328ZM146.94 114.328V114.078H146.771L146.708 114.234L146.94 114.328ZM142.636 125L142.404 124.906L142.266 125.25H142.636V125ZM144.156 125V125.25H144.326L144.389 125.092L144.156 125ZM145.1 122.616V122.366H144.93L144.868 122.524L145.1 122.616ZM150.412 122.616L150.645 122.524L150.582 122.366H150.412V122.616ZM151.356 125L151.124 125.092L151.186 125.25H151.356V125ZM150.028 121.448V121.698H150.396L150.261 121.356L150.028 121.448ZM145.5 121.448L145.267 121.357L145.134 121.698H145.5V121.448ZM147.756 115.688L147.989 115.596L147.755 115.005L147.523 115.597L147.756 115.688ZM153.108 124.907L148.82 114.235L148.356 114.421L152.644 125.093L153.108 124.907ZM148.588 114.078H146.94V114.578H148.588V114.078ZM146.708 114.234L142.404 124.906L142.868 125.094L147.172 114.422L146.708 114.234ZM142.636 125.25H144.156V124.75H142.636V125.25ZM144.389 125.092L145.333 122.708L144.868 122.524L143.924 124.908L144.389 125.092ZM145.1 122.866H150.412V122.366H145.1V122.866ZM150.18 122.708L151.124 125.092L151.589 124.908L150.645 122.524L150.18 122.708ZM151.356 125.25H152.876V124.75H151.356V125.25ZM150.028 121.198H145.5V121.698H150.028V121.198ZM145.733 121.539L147.989 115.779L147.523 115.597L145.267 121.357L145.733 121.539ZM147.524 115.78L149.796 121.54L150.261 121.356L147.989 115.596L147.524 115.78ZM162.015 125V125.25H162.481L162.224 124.862L162.015 125ZM159.135 120.648L159.114 120.399L158.695 120.436L158.927 120.786L159.135 120.648ZM154.271 114.328V114.078H154.021V114.328H154.271ZM154.271 125H154.021V125.25H154.271V125ZM155.599 125V125.25H155.849V125H155.599ZM155.599 120.76V120.51H155.349V120.76H155.599ZM157.743 120.76L157.954 120.626L157.881 120.51H157.743V120.76ZM160.447 125L160.237 125.134L160.31 125.25H160.447V125ZM155.599 119.592H155.349V119.842H155.599V119.592ZM155.599 115.512V115.262H155.349V115.512H155.599ZM162.224 124.862L159.344 120.51L158.927 120.786L161.807 125.138L162.224 124.862ZM159.157 120.897C159.937 120.828 160.691 120.511 161.251 119.944C161.814 119.374 162.169 118.565 162.169 117.544H161.669C161.669 118.443 161.36 119.122 160.896 119.592C160.428 120.065 159.79 120.34 159.114 120.399L159.157 120.897ZM162.169 117.544C162.169 116.497 161.793 115.625 161.142 115.016C160.493 114.408 159.589 114.078 158.559 114.078V114.578C159.482 114.578 160.258 114.872 160.801 115.38C161.341 115.887 161.669 116.623 161.669 117.544H162.169ZM158.559 114.078H154.271V114.578H158.559V114.078ZM154.021 114.328V125H154.521V114.328H154.021ZM154.271 125.25H155.599V124.75H154.271V125.25ZM155.849 125V120.76H155.349V125H155.849ZM155.599 121.01H157.743V120.51H155.599V121.01ZM157.533 120.894L160.237 125.134L160.658 124.866L157.954 120.626L157.533 120.894ZM160.447 125.25H162.015V124.75H160.447V125.25ZM158.399 119.342H155.599V119.842H158.399V119.342ZM155.849 119.592V115.512H155.349V119.592H155.849ZM155.599 115.762H158.399V115.262H155.599V115.762ZM158.399 115.762C158.977 115.762 159.449 115.948 159.774 116.254C160.098 116.559 160.293 116.999 160.293 117.544H160.793C160.793 116.873 160.549 116.297 160.117 115.89C159.686 115.484 159.086 115.262 158.399 115.262V115.762ZM160.293 117.544C160.293 118.081 160.098 118.526 159.773 118.837C159.446 119.15 158.975 119.342 158.399 119.342V119.842C159.088 119.842 159.689 119.61 160.118 119.199C160.549 118.786 160.793 118.207 160.793 117.544H160.293ZM171.013 125V125.25H171.263V125H171.013ZM171.013 123.816H171.263V123.566H171.013V123.816ZM165.349 123.816H165.099V124.066H165.349V123.816ZM165.349 120.136V119.886H165.099V120.136H165.349ZM170.901 120.136V120.386H171.151V120.136H170.901ZM170.901 118.952H171.151V118.702H170.901V118.952ZM165.349 118.952H165.099V119.202H165.349V118.952ZM165.349 115.512V115.262H165.099V115.512H165.349ZM171.013 115.512V115.762H171.263V115.512H171.013ZM171.013 114.328H171.263V114.078H171.013V114.328ZM164.021 114.328V114.078H163.771V114.328H164.021ZM164.021 125H163.771V125.25H164.021V125ZM171.263 125V123.816H170.763V125H171.263ZM171.013 123.566H165.349V124.066H171.013V123.566ZM165.599 123.816V120.136H165.099V123.816H165.599ZM165.349 120.386H170.901V119.886H165.349V120.386ZM171.151 120.136V118.952H170.651V120.136H171.151ZM170.901 118.702H165.349V119.202H170.901V118.702ZM165.599 118.952V115.512H165.099V118.952H165.599ZM165.349 115.762H171.013V115.262H165.349V115.762ZM171.263 115.512V114.328H170.763V115.512H171.263ZM171.013 114.078H164.021V114.578H171.013V114.078ZM163.771 114.328V125H164.271V114.328H163.771ZM164.021 125.25H171.013V124.75H164.021V125.25ZM59.0371 129.328V129.078H58.7871V129.328H59.0371ZM59.0371 140H58.7871V140.25H59.0371V140ZM60.3651 138.816H60.1151V139.066H60.3651V138.816ZM60.3651 130.512V130.262H60.1151V130.512H60.3651ZM62.6851 140.25C64.4082 140.25 65.8421 139.657 66.8458 138.653C67.849 137.65 68.4071 136.252 68.4071 134.672H67.9071C67.9071 136.132 67.3931 137.398 66.4923 138.299C65.592 139.199 64.2899 139.75 62.6851 139.75V140.25ZM68.4071 134.672C68.4071 133.1 67.849 131.699 66.8464 130.69C65.8431 129.68 64.4092 129.078 62.6851 129.078V129.578C64.2889 129.578 65.591 130.136 66.4917 131.042C67.3932 131.949 67.9071 133.22 67.9071 134.672H68.4071ZM62.6851 129.078H59.0371V129.578H62.6851V129.078ZM58.7871 129.328V140H59.2871V129.328H58.7871ZM59.0371 140.25H62.6851V139.75H59.0371V140.25ZM62.6851 138.566H60.3651V139.066H62.6851V138.566ZM60.6151 138.816V130.512H60.1151V138.816H60.6151ZM60.3651 130.762H62.6851V130.262H60.3651V130.762ZM62.6851 130.762C63.9429 130.762 64.8976 131.202 65.5393 131.898C66.1838 132.596 66.5311 133.572 66.5311 134.672H67.0311C67.0311 133.468 66.6504 132.364 65.9068 131.558C65.1605 130.75 64.0672 130.262 62.6851 130.262V130.762ZM66.5311 134.672C66.5311 135.762 66.1733 136.734 65.5223 137.431C64.8736 138.126 63.9179 138.566 62.6851 138.566V139.066C64.0442 139.066 65.1365 138.578 65.8878 137.773C66.6368 136.97 67.0311 135.87 67.0311 134.672H66.5311ZM77.2322 140V140.25H77.4822V140H77.2322ZM77.2322 138.816H77.4822V138.566H77.2322V138.816ZM71.5682 138.816H71.3182V139.066H71.5682V138.816ZM71.5682 135.136V134.886H71.3182V135.136H71.5682ZM77.1202 135.136V135.386H77.3702V135.136H77.1202ZM77.1202 133.952H77.3702V133.702H77.1202V133.952ZM71.5682 133.952H71.3182V134.202H71.5682V133.952ZM71.5682 130.512V130.262H71.3182V130.512H71.5682ZM77.2322 130.512V130.762H77.4822V130.512H77.2322ZM77.2322 129.328H77.4822V129.078H77.2322V129.328ZM70.2402 129.328V129.078H69.9902V129.328H70.2402ZM70.2402 140H69.9902V140.25H70.2402V140ZM77.4822 140V138.816H76.9822V140H77.4822ZM77.2322 138.566H71.5682V139.066H77.2322V138.566ZM71.8182 138.816V135.136H71.3182V138.816H71.8182ZM71.5682 135.386H77.1202V134.886H71.5682V135.386ZM77.3702 135.136V133.952H76.8702V135.136H77.3702ZM77.1202 133.702H71.5682V134.202H77.1202V133.702ZM71.8182 133.952V130.512H71.3182V133.952H71.8182ZM71.5682 130.762H77.2322V130.262H71.5682V130.762ZM77.4822 130.512V129.328H76.9822V130.512H77.4822ZM77.2322 129.078H70.2402V129.578H77.2322V129.078ZM69.9902 129.328V140H70.4902V129.328H69.9902ZM70.2402 140.25H77.2322V139.75H70.2402V140.25ZM84.1976 140V140.25H84.3665L84.4295 140.093L84.1976 140ZM88.4856 129.328L88.7175 129.421L88.8554 129.078H88.4856V129.328ZM86.9656 129.328V129.078H86.7948L86.7327 129.237L86.9656 129.328ZM83.3656 138.544L83.1327 138.635L83.3656 139.231L83.5984 138.635L83.3656 138.544ZM79.7656 129.328L79.9984 129.237L79.9363 129.078H79.7656V129.328ZM78.2456 129.328V129.078H77.8752L78.0137 129.422L78.2456 129.328ZM82.5496 140L82.3177 140.094L82.3808 140.25H82.5496V140ZM84.4295 140.093L88.7175 129.421L88.2536 129.235L83.9656 139.907L84.4295 140.093ZM88.4856 129.078H86.9656V129.578H88.4856V129.078ZM86.7327 129.237L83.1327 138.453L83.5984 138.635L87.1984 129.419L86.7327 129.237ZM83.5984 138.453L79.9984 129.237L79.5327 129.419L83.1327 138.635L83.5984 138.453ZM79.7656 129.078H78.2456V129.578H79.7656V129.078ZM78.0137 129.422L82.3177 140.094L82.7814 139.906L78.4774 129.234L78.0137 129.422ZM82.5496 140.25H84.1976V139.75H82.5496V140.25ZM96.8728 140V140.25H97.1228V140H96.8728ZM96.8728 138.816H97.1228V138.566H96.8728V138.816ZM91.2088 138.816H90.9588V139.066H91.2088V138.816ZM91.2088 135.136V134.886H90.9588V135.136H91.2088ZM96.7608 135.136V135.386H97.0108V135.136H96.7608ZM96.7608 133.952H97.0108V133.702H96.7608V133.952ZM91.2088 133.952H90.9588V134.202H91.2088V133.952ZM91.2088 130.512V130.262H90.9588V130.512H91.2088ZM96.8728 130.512V130.762H97.1228V130.512H96.8728ZM96.8728 129.328H97.1228V129.078H96.8728V129.328ZM89.8808 129.328V129.078H89.6308V129.328H89.8808ZM89.8808 140H89.6308V140.25H89.8808V140ZM97.1228 140V138.816H96.6228V140H97.1228ZM96.8728 138.566H91.2088V139.066H96.8728V138.566ZM91.4588 138.816V135.136H90.9588V138.816H91.4588ZM91.2088 135.386H96.7608V134.886H91.2088V135.386ZM97.0108 135.136V133.952H96.5108V135.136H97.0108ZM96.7608 133.702H91.2088V134.202H96.7608V133.702ZM91.4588 133.952V130.512H90.9588V133.952H91.4588ZM91.2088 130.762H96.8728V130.262H91.2088V130.762ZM97.1228 130.512V129.328H96.6228V130.512H97.1228ZM96.8728 129.078H89.8808V129.578H96.8728V129.078ZM89.6308 129.328V140H90.1308V129.328H89.6308ZM89.8808 140.25H96.8728V139.75H89.8808V140.25ZM105.102 140V140.25H105.352V140H105.102ZM105.102 138.816H105.352V138.566H105.102V138.816ZM100.142 138.816H99.8922V139.066H100.142V138.816ZM100.142 129.328H100.392V129.078H100.142V129.328ZM98.8142 129.328V129.078H98.5642V129.328H98.8142ZM98.8142 140H98.5642V140.25H98.8142V140ZM105.352 140V138.816H104.852V140H105.352ZM105.102 138.566H100.142V139.066H105.102V138.566ZM100.392 138.816V129.328H99.8922V138.816H100.392ZM100.142 129.078H98.8142V129.578H100.142V129.078ZM98.5642 129.328V140H99.0642V129.328H98.5642ZM98.8142 140.25H105.102V139.75H98.8142V140.25ZM111.198 140.442C114.501 140.442 116.76 137.949 116.76 134.672H116.26C116.26 137.699 114.199 139.942 111.198 139.942V140.442ZM116.76 134.672C116.76 131.395 114.501 128.902 111.198 128.902V129.402C114.199 129.402 116.26 131.645 116.26 134.672H116.76ZM111.198 128.902C107.894 128.902 105.652 131.396 105.652 134.672H106.152C106.152 131.644 108.198 129.402 111.198 129.402V128.902ZM105.652 134.672C105.652 137.948 107.894 140.442 111.198 140.442V139.942C108.198 139.942 106.152 137.7 106.152 134.672H105.652ZM111.198 138.758C110.067 138.758 109.156 138.323 108.526 137.605C107.892 136.884 107.528 135.862 107.528 134.672H107.028C107.028 135.962 107.424 137.108 108.15 137.935C108.879 138.765 109.929 139.258 111.198 139.258V138.758ZM107.528 134.672C107.528 133.474 107.893 132.452 108.526 131.733C109.156 131.018 110.066 130.586 111.198 130.586V130.086C109.93 130.086 108.88 130.574 108.15 131.403C107.423 132.228 107.028 133.374 107.028 134.672H107.528ZM111.198 130.586C112.321 130.586 113.236 131.018 113.873 131.734C114.512 132.453 114.884 133.475 114.884 134.672H115.384C115.384 133.373 114.98 132.227 114.247 131.402C113.512 130.574 112.459 130.086 111.198 130.086V130.586ZM114.884 134.672C114.884 135.861 114.512 136.883 113.873 137.604C113.236 138.323 112.321 138.758 111.198 138.758V139.258C112.459 139.258 113.512 138.765 114.247 137.936C114.98 137.109 115.384 135.963 115.384 134.672H114.884ZM119.896 140V140.25H120.146V140H119.896ZM119.896 135.76V135.51H119.646V135.76H119.896ZM118.568 129.328V129.078H118.318V129.328H118.568ZM118.568 140H118.318V140.25H118.568V140ZM119.896 134.576H119.646V134.826H119.896V134.576ZM119.896 130.512V130.262H119.646V130.512H119.896ZM120.146 140V135.76H119.646V140H120.146ZM119.896 136.01H122.856V135.51H119.896V136.01ZM122.856 136.01C123.981 136.01 124.884 135.62 125.506 134.98C126.126 134.343 126.45 133.474 126.45 132.544H125.95C125.95 133.358 125.667 134.097 125.147 134.632C124.629 135.164 123.86 135.51 122.856 135.51V136.01ZM126.45 132.544C126.45 131.615 126.13 130.746 125.512 130.108C124.892 129.468 123.988 129.078 122.856 129.078V129.578C123.868 129.578 124.637 129.924 125.153 130.456C125.67 130.99 125.95 131.729 125.95 132.544H126.45ZM122.856 129.078H118.568V129.578H122.856V129.078ZM118.318 129.328V140H118.818V129.328H118.318ZM118.568 140.25H119.896V139.75H118.568V140.25ZM122.696 134.326H119.896V134.826H122.696V134.326ZM120.146 134.576V130.512H119.646V134.576H120.146ZM119.896 130.762H122.696V130.262H119.896V130.762ZM122.696 130.762C123.273 130.762 123.74 130.951 124.061 131.259C124.382 131.566 124.574 132.006 124.574 132.544H125.074C125.074 131.882 124.835 131.306 124.407 130.897C123.981 130.489 123.384 130.262 122.696 130.262V130.762ZM124.574 132.544C124.574 133.082 124.382 133.522 124.061 133.829C123.74 134.137 123.273 134.326 122.696 134.326V134.826C123.384 134.826 123.981 134.599 124.407 134.191C124.835 133.782 125.074 133.206 125.074 132.544H124.574ZM138.407 140V140.25H138.657V140H138.407ZM138.407 129.328H138.657V129.078H138.407V129.328ZM136.503 129.328V129.078H136.334L136.271 129.235L136.503 129.328ZM133.191 137.552L132.959 137.646L133.191 138.22L133.423 137.645L133.191 137.552ZM129.863 129.328L130.095 129.234L130.031 129.078H129.863V129.328ZM127.959 129.328V129.078H127.709V129.328H127.959ZM127.959 140H127.709V140.25H127.959V140ZM129.287 140V140.25H129.537V140H129.287ZM129.287 131.024L129.519 130.93L129.037 131.024H129.287ZM132.919 140L132.687 140.094L132.75 140.25H132.919V140ZM133.463 140V140.25H133.632L133.695 140.093L133.463 140ZM137.079 131.024H137.329L136.847 130.931L137.079 131.024ZM137.079 140H136.829V140.25H137.079V140ZM138.657 140V129.328H138.157V140H138.657ZM138.407 129.078H136.503V129.578H138.407V129.078ZM136.271 129.235L132.959 137.459L133.423 137.645L136.735 129.421L136.271 129.235ZM133.423 137.458L130.095 129.234L129.631 129.422L132.959 137.646L133.423 137.458ZM129.863 129.078H127.959V129.578H129.863V129.078ZM127.709 129.328V140H128.209V129.328H127.709ZM127.959 140.25H129.287V139.75H127.959V140.25ZM129.537 140V131.024H129.037V140H129.537ZM129.055 131.118L132.687 140.094L133.151 139.906L129.519 130.93L129.055 131.118ZM132.919 140.25H133.463V139.75H132.919V140.25ZM133.695 140.093L137.311 131.117L136.847 130.931L133.231 139.907L133.695 140.093ZM136.829 131.024V140H137.329V131.024H136.829ZM137.079 140.25H138.407V139.75H137.079V140.25ZM147.888 140V140.25H148.138V140H147.888ZM147.888 138.816H148.138V138.566H147.888V138.816ZM142.224 138.816H141.974V139.066H142.224V138.816ZM142.224 135.136V134.886H141.974V135.136H142.224ZM147.776 135.136V135.386H148.026V135.136H147.776ZM147.776 133.952H148.026V133.702H147.776V133.952ZM142.224 133.952H141.974V134.202H142.224V133.952ZM142.224 130.512V130.262H141.974V130.512H142.224ZM147.888 130.512V130.762H148.138V130.512H147.888ZM147.888 129.328H148.138V129.078H147.888V129.328ZM140.896 129.328V129.078H140.646V129.328H140.896ZM140.896 140H140.646V140.25H140.896V140ZM148.138 140V138.816H147.638V140H148.138ZM147.888 138.566H142.224V139.066H147.888V138.566ZM142.474 138.816V135.136H141.974V138.816H142.474ZM142.224 135.386H147.776V134.886H142.224V135.386ZM148.026 135.136V133.952H147.526V135.136H148.026ZM147.776 133.702H142.224V134.202H147.776V133.702ZM142.474 133.952V130.512H141.974V133.952H142.474ZM142.224 130.762H147.888V130.262H142.224V130.762ZM148.138 130.512V129.328H147.638V130.512H148.138ZM147.888 129.078H140.896V129.578H147.888V129.078ZM140.646 129.328V140H141.146V129.328H140.646ZM140.896 140.25H147.888V139.75H140.896V140.25ZM158.838 140V140.25H159.088V140H158.838ZM158.838 129.328H159.088V129.078H158.838V129.328ZM157.51 129.328V129.078H157.26V129.328H157.51ZM157.51 137.664L157.309 137.812L157.76 138.425V137.664H157.51ZM151.366 129.328L151.567 129.18L151.492 129.078H151.366V129.328ZM150.006 129.328V129.078H149.756V129.328H150.006ZM150.006 140H149.756V140.25H150.006V140ZM151.334 140V140.25H151.584V140H151.334ZM151.334 131.488L151.536 131.34L151.084 130.723V131.488H151.334ZM157.558 140L157.356 140.148L157.431 140.25H157.558V140ZM159.088 140V129.328H158.588V140H159.088ZM158.838 129.078H157.51V129.578H158.838V129.078ZM157.26 129.328V137.664H157.76V129.328H157.26ZM157.711 137.516L151.567 129.18L151.165 129.476L157.309 137.812L157.711 137.516ZM151.366 129.078H150.006V129.578H151.366V129.078ZM149.756 129.328V140H150.256V129.328H149.756ZM150.006 140.25H151.334V139.75H150.006V140.25ZM151.584 140V131.488H151.084V140H151.584ZM151.132 131.636L157.356 140.148L157.76 139.852L151.536 131.34L151.132 131.636ZM157.558 140.25H158.838V139.75H157.558V140.25ZM165.302 140V140.25H165.552V140H165.302ZM165.302 130.512V130.262H165.052V130.512H165.302ZM168.694 130.512V130.762H168.944V130.512H168.694ZM168.694 129.328H168.944V129.078H168.694V129.328ZM160.598 129.328V129.078H160.348V129.328H160.598ZM160.598 130.512H160.348V130.762H160.598V130.512ZM163.974 130.512H164.224V130.262H163.974V130.512ZM163.974 140H163.724V140.25H163.974V140ZM165.552 140V130.512H165.052V140H165.552ZM165.302 130.762H168.694V130.262H165.302V130.762ZM168.944 130.512V129.328H168.444V130.512H168.944ZM168.694 129.078H160.598V129.578H168.694V129.078ZM160.348 129.328V130.512H160.848V129.328H160.348ZM160.598 130.762H163.974V130.262H160.598V130.762ZM163.724 130.512V140H164.224V130.512H163.724ZM163.974 140.25H165.302V139.75H163.974V140.25ZM79.7118 153.064L79.9139 153.211L80.0817 152.98L79.831 152.844L79.7118 153.064ZM78.5918 152.456L78.711 152.236L78.512 152.128L78.3849 152.316L78.5918 152.456ZM78.5918 146.888L78.3837 147.027L78.5126 147.22L78.7148 147.106L78.5918 146.888ZM79.6958 146.264L79.8188 146.482L80.058 146.346L79.9008 146.121L79.6958 146.264ZM75.6478 155.442C77.6315 155.442 78.981 154.494 79.9139 153.211L79.5096 152.917C78.6505 154.098 77.44 154.942 75.6478 154.942V155.442ZM79.831 152.844L78.711 152.236L78.4725 152.676L79.5925 153.284L79.831 152.844ZM78.3849 152.316C77.8212 153.146 76.777 153.758 75.6478 153.758V154.258C76.9505 154.258 78.1463 153.558 78.7986 152.596L78.3849 152.316ZM75.6478 153.758C73.4597 153.758 71.7858 152.072 71.7858 149.672H71.2858C71.2858 152.328 73.1638 154.258 75.6478 154.258V153.758ZM71.7858 149.672C71.7858 147.241 73.4585 145.586 75.6478 145.586V145.086C73.165 145.086 71.2858 146.983 71.2858 149.672H71.7858ZM75.6478 145.586C76.7789 145.586 77.8214 146.183 78.3837 147.027L78.7998 146.749C78.1461 145.769 76.9486 145.086 75.6478 145.086V145.586ZM78.7148 147.106L79.8188 146.482L79.5727 146.046L78.4687 146.67L78.7148 147.106ZM79.9008 146.121C79.0128 144.848 77.6286 143.902 75.6478 143.902V144.402C77.4429 144.402 78.6827 145.248 79.4907 146.407L79.9008 146.121ZM75.6478 143.902C72.442 143.902 69.9098 146.25 69.9098 149.672H70.4098C70.4098 146.534 72.7095 144.402 75.6478 144.402V143.902ZM69.9098 149.672C69.9098 153.094 72.442 155.442 75.6478 155.442V154.942C72.7095 154.942 70.4098 152.81 70.4098 149.672H69.9098ZM86.2683 155.442C89.5709 155.442 91.8303 152.949 91.8303 149.672H91.3303C91.3303 152.699 89.2696 154.942 86.2683 154.942V155.442ZM91.8303 149.672C91.8303 146.395 89.5709 143.902 86.2683 143.902V144.402C89.2696 144.402 91.3303 146.645 91.3303 149.672H91.8303ZM86.2683 143.902C82.9646 143.902 80.7223 146.396 80.7223 149.672H81.2223C81.2223 146.644 83.2679 144.402 86.2683 144.402V143.902ZM80.7223 149.672C80.7223 152.948 82.9646 155.442 86.2683 155.442V154.942C83.2679 154.942 81.2223 152.7 81.2223 149.672H80.7223ZM86.2683 153.758C85.1373 153.758 84.2267 153.323 83.5961 152.605C82.9627 151.884 82.5983 150.862 82.5983 149.672H82.0983C82.0983 150.962 82.4938 152.108 83.2204 152.935C83.9498 153.765 84.9992 154.258 86.2683 154.258V153.758ZM82.5983 149.672C82.5983 148.474 82.9628 147.452 83.5959 146.733C84.2262 146.018 85.1366 145.586 86.2683 145.586V145.086C84.9999 145.086 83.9503 145.574 83.2206 146.403C82.4937 147.228 82.0983 148.374 82.0983 149.672H82.5983ZM86.2683 145.586C87.3917 145.586 88.3067 146.018 88.9434 146.734C89.5825 147.453 89.9543 148.475 89.9543 149.672H90.4543C90.4543 148.373 90.05 147.227 89.3171 146.402C88.5818 145.574 87.5288 145.086 86.2683 145.086V145.586ZM89.9543 149.672C89.9543 150.861 89.5826 151.883 88.9432 152.604C88.3061 153.323 87.391 153.758 86.2683 153.758V154.258C87.5295 154.258 88.5824 153.765 89.3173 152.936C90.0499 152.109 90.4543 150.963 90.4543 149.672H89.9543ZM104.087 155V155.25H104.337V155H104.087ZM104.087 144.328H104.337V144.078H104.087V144.328ZM102.183 144.328V144.078H102.014L101.951 144.235L102.183 144.328ZM98.8706 152.552L98.6389 152.646L98.8712 153.22L99.1025 152.645L98.8706 152.552ZM95.5426 144.328L95.7744 144.234L95.7112 144.078H95.5426V144.328ZM93.6386 144.328V144.078H93.3886V144.328H93.6386ZM93.6386 155H93.3886V155.25H93.6386V155ZM94.9666 155V155.25H95.2166V155H94.9666ZM94.9666 146.024L95.1984 145.93L94.7166 146.024H94.9666ZM98.5986 155L98.3669 155.094L98.4301 155.25H98.5986V155ZM99.1426 155V155.25H99.3114L99.3745 155.093L99.1426 155ZM102.759 146.024H103.009L102.527 145.931L102.759 146.024ZM102.759 155H102.509V155.25H102.759V155ZM104.337 155V144.328H103.837V155H104.337ZM104.087 144.078H102.183V144.578H104.087V144.078ZM101.951 144.235L98.6387 152.459L99.1025 152.645L102.415 144.421L101.951 144.235ZM99.1024 152.458L95.7744 144.234L95.3109 144.422L98.6389 152.646L99.1024 152.458ZM95.5426 144.078H93.6386V144.578H95.5426V144.078ZM93.3886 144.328V155H93.8886V144.328H93.3886ZM93.6386 155.25H94.9666V154.75H93.6386V155.25ZM95.2166 155V146.024H94.7166V155H95.2166ZM94.7349 146.118L98.3669 155.094L98.8304 154.906L95.1984 145.93L94.7349 146.118ZM98.5986 155.25H99.1426V154.75H98.5986V155.25ZM99.3745 155.093L102.991 146.117L102.527 145.931L98.9107 154.907L99.3745 155.093ZM102.509 146.024V155H103.009V146.024H102.509ZM102.759 155.25H104.087V154.75H102.759V155.25ZM107.904 155V155.25H108.154V155H107.904ZM107.904 150.76V150.51H107.654V150.76H107.904ZM106.576 144.328V144.078H106.326V144.328H106.576ZM106.576 155H106.326V155.25H106.576V155ZM107.904 149.576H107.654V149.826H107.904V149.576ZM107.904 145.512V145.262H107.654V145.512H107.904ZM108.154 155V150.76H107.654V155H108.154ZM107.904 151.01H110.864V150.51H107.904V151.01ZM110.864 151.01C111.989 151.01 112.892 150.62 113.513 149.98C114.133 149.343 114.458 148.474 114.458 147.544H113.958C113.958 148.358 113.675 149.097 113.155 149.632C112.637 150.164 111.868 150.51 110.864 150.51V151.01ZM114.458 147.544C114.458 146.615 114.138 145.746 113.52 145.108C112.899 144.468 111.996 144.078 110.864 144.078V144.578C111.876 144.578 112.645 144.924 113.161 145.456C113.678 145.99 113.958 146.729 113.958 147.544H114.458ZM110.864 144.078H106.576V144.578H110.864V144.078ZM106.326 144.328V155H106.826V144.328H106.326ZM106.576 155.25H107.904V154.75H106.576V155.25ZM110.704 149.326H107.904V149.826H110.704V149.326ZM108.154 149.576V145.512H107.654V149.576H108.154ZM107.904 145.762H110.704V145.262H107.904V145.762ZM110.704 145.762C111.281 145.762 111.748 145.951 112.069 146.259C112.39 146.566 112.582 147.006 112.582 147.544H113.082C113.082 146.882 112.842 146.306 112.415 145.897C111.988 145.489 111.392 145.262 110.704 145.262V145.762ZM112.582 147.544C112.582 148.082 112.39 148.522 112.069 148.829C111.748 149.137 111.281 149.326 110.704 149.326V149.826C111.392 149.826 111.988 149.599 112.415 149.191C112.842 148.782 113.082 148.206 113.082 147.544H112.582ZM123.868 155V155.25H124.238L124.1 154.907L123.868 155ZM119.58 144.328L119.812 144.235L119.749 144.078H119.58V144.328ZM117.932 144.328V144.078H117.764L117.701 144.234L117.932 144.328ZM113.628 155L113.397 154.906L113.258 155.25H113.628V155ZM115.148 155V155.25H115.318L115.381 155.092L115.148 155ZM116.092 152.616V152.366H115.922L115.86 152.524L116.092 152.616ZM121.404 152.616L121.637 152.524L121.574 152.366H121.404V152.616ZM122.348 155L122.116 155.092L122.178 155.25H122.348V155ZM121.02 151.448V151.698H121.388L121.253 151.356L121.02 151.448ZM116.492 151.448L116.26 151.357L116.126 151.698H116.492V151.448ZM118.748 145.688L118.981 145.596L118.748 145.005L118.516 145.597L118.748 145.688ZM124.1 154.907L119.812 144.235L119.348 144.421L123.636 155.093L124.1 154.907ZM119.58 144.078H117.932V144.578H119.58V144.078ZM117.701 144.234L113.397 154.906L113.86 155.094L118.164 144.422L117.701 144.234ZM113.628 155.25H115.148V154.75H113.628V155.25ZM115.381 155.092L116.325 152.708L115.86 152.524L114.916 154.908L115.381 155.092ZM116.092 152.866H121.404V152.366H116.092V152.866ZM121.172 152.708L122.116 155.092L122.581 154.908L121.637 152.524L121.172 152.708ZM122.348 155.25H123.868V154.75H122.348V155.25ZM121.02 151.198H116.492V151.698H121.02V151.198ZM116.725 151.539L118.981 145.779L118.516 145.597L116.26 151.357L116.725 151.539ZM118.516 145.78L120.788 151.54L121.253 151.356L118.981 145.596L118.516 145.78ZM134.096 155V155.25H134.346V155H134.096ZM134.096 144.328H134.346V144.078H134.096V144.328ZM132.768 144.328V144.078H132.518V144.328H132.768ZM132.768 152.664L132.566 152.812L133.018 153.425V152.664H132.768ZM126.624 144.328L126.825 144.18L126.75 144.078H126.624V144.328ZM125.264 144.328V144.078H125.014V144.328H125.264ZM125.264 155H125.014V155.25H125.264V155ZM126.592 155V155.25H126.842V155H126.592ZM126.592 146.488L126.793 146.34L126.342 145.723V146.488H126.592ZM132.816 155L132.614 155.148L132.689 155.25H132.816V155ZM134.346 155V144.328H133.846V155H134.346ZM134.096 144.078H132.768V144.578H134.096V144.078ZM132.518 144.328V152.664H133.018V144.328H132.518ZM132.969 152.516L126.825 144.18L126.422 144.476L132.566 152.812L132.969 152.516ZM126.624 144.078H125.264V144.578H126.624V144.078ZM125.014 144.328V155H125.514V144.328H125.014ZM125.264 155.25H126.592V154.75H125.264V155.25ZM126.842 155V146.488H126.342V155H126.842ZM126.39 146.636L132.614 155.148L133.017 154.852L126.793 146.34L126.39 146.636ZM132.816 155.25H134.096V154.75H132.816V155.25ZM137.92 155V155.25H138.17V155H137.92ZM137.92 144.328H138.17V144.078H137.92V144.328ZM136.592 144.328V144.078H136.342V144.328H136.592ZM136.592 155H136.342V155.25H136.592V155ZM138.17 155V144.328H137.67V155H138.17ZM137.92 144.078H136.592V144.578H137.92V144.078ZM136.342 144.328V155H136.842V144.328H136.342ZM136.592 155.25H137.92V154.75H136.592V155.25ZM147.412 155V155.25H147.662V155H147.412ZM147.412 153.816H147.662V153.566H147.412V153.816ZM141.748 153.816H141.498V154.066H141.748V153.816ZM141.748 150.136V149.886H141.498V150.136H141.748ZM147.3 150.136V150.386H147.55V150.136H147.3ZM147.3 148.952H147.55V148.702H147.3V148.952ZM141.748 148.952H141.498V149.202H141.748V148.952ZM141.748 145.512V145.262H141.498V145.512H141.748ZM147.412 145.512V145.762H147.662V145.512H147.412ZM147.412 144.328H147.662V144.078H147.412V144.328ZM140.42 144.328V144.078H140.17V144.328H140.42ZM140.42 155H140.17V155.25H140.42V155ZM147.662 155V153.816H147.162V155H147.662ZM147.412 153.566H141.748V154.066H147.412V153.566ZM141.998 153.816V150.136H141.498V153.816H141.998ZM141.748 150.386H147.3V149.886H141.748V150.386ZM147.55 150.136V148.952H147.05V150.136H147.55ZM147.3 148.702H141.748V149.202H147.3V148.702ZM141.998 148.952V145.512H141.498V148.952H141.998ZM141.748 145.762H147.412V145.262H141.748V145.762ZM147.662 145.512V144.328H147.162V145.512H147.662ZM147.412 144.078H140.42V144.578H147.412V144.078ZM140.17 144.328V155H140.67V144.328H140.17ZM140.42 155.25H147.412V154.75H140.42V155.25ZM155.881 146.632L155.695 146.799L155.889 147.016L156.075 146.79L155.881 146.632ZM156.681 145.656L156.875 145.814L157.014 145.644L156.863 145.484L156.681 145.656ZM149.689 152.472L149.879 152.309L149.68 152.078L149.492 152.318L149.689 152.472ZM148.889 153.496L148.692 153.342L148.564 153.506L148.702 153.662L148.889 153.496ZM152.985 155.442C154.471 155.442 155.523 155.028 156.205 154.381C156.887 153.735 157.171 152.881 157.171 152.056H156.671C156.671 152.767 156.428 153.481 155.861 154.019C155.295 154.556 154.379 154.942 152.985 154.942V155.442ZM157.171 152.056C157.171 150.98 156.738 150.248 156.089 149.734C155.455 149.232 154.622 148.945 153.83 148.718C153.017 148.484 152.263 148.316 151.693 148.055C151.413 147.927 151.202 147.787 151.062 147.625C150.927 147.47 150.851 147.286 150.851 147.048H150.351C150.351 147.41 150.473 147.708 150.684 147.952C150.889 148.19 151.172 148.367 151.485 148.51C152.1 148.791 152.926 148.978 153.692 149.198C154.48 149.425 155.228 149.691 155.779 150.126C156.314 150.55 156.671 151.14 156.671 152.056H157.171ZM150.851 147.048C150.851 146.629 151.041 146.276 151.375 146.021C151.713 145.762 152.204 145.602 152.793 145.602V145.102C152.118 145.102 151.514 145.286 151.071 145.623C150.625 145.964 150.351 146.459 150.351 147.048H150.851ZM152.793 145.602C153.907 145.602 154.952 145.967 155.695 146.799L156.068 146.465C155.21 145.505 154.015 145.102 152.793 145.102V145.602ZM156.075 146.79L156.875 145.814L156.488 145.498L155.688 146.474L156.075 146.79ZM156.863 145.484C155.915 144.486 154.584 143.902 152.905 143.902V144.402C154.459 144.402 155.655 144.938 156.5 145.828L156.863 145.484ZM152.905 143.902C150.711 143.902 148.975 145.18 148.975 147.128H149.475C149.475 145.556 150.876 144.402 152.905 144.402V143.902ZM148.975 147.128C148.975 148.166 149.413 148.856 150.065 149.334C150.699 149.799 151.531 150.06 152.319 150.277C153.128 150.5 153.881 150.677 154.444 150.964C154.721 151.105 154.932 151.265 155.074 151.453C155.213 151.637 155.295 151.86 155.295 152.152H155.795C155.795 151.756 155.68 151.425 155.473 151.152C155.27 150.882 154.987 150.68 154.671 150.519C154.049 150.201 153.223 150.008 152.452 149.795C151.66 149.576 150.912 149.335 150.361 148.931C149.827 148.54 149.475 147.994 149.475 147.128H148.975ZM155.295 152.152C155.295 152.508 155.166 152.902 154.834 153.208C154.502 153.515 153.941 153.758 153.033 153.758V154.258C154.03 154.258 154.725 153.989 155.173 153.576C155.621 153.162 155.795 152.628 155.795 152.152H155.295ZM153.033 153.758C151.615 153.758 150.529 153.065 149.879 152.309L149.5 152.635C150.226 153.479 151.443 154.258 153.033 154.258V153.758ZM149.492 152.318L148.692 153.342L149.086 153.65L149.886 152.626L149.492 152.318ZM148.702 153.662C149.632 154.71 151.077 155.442 152.985 155.442V154.942C151.213 154.942 149.907 154.266 149.076 153.33L148.702 153.662Z" fill="black"/>
<path d="M112.765 68.6657C112.577 68.6657 112.577 68.4649 112.765 68.6657L111.827 68.0633L111.639 67.8625L89.5036 50.9972C89.5036 50.9972 89.3161 50.9973 89.3161 50.7965L88.9409 50.3949L88.7533 50.1941H88.3781L82 45.3755L94.5686 47.3833C95.1314 47.3833 95.319 47.584 95.8817 47.7848C96.0693 47.7848 96.4445 47.9856 96.4445 47.9856C97.0073 48.1864 97.1949 48.3872 97.5701 48.5879C97.9453 48.7887 98.1328 48.9895 98.508 49.1903C98.6956 49.391 99.0708 49.5918 99.0708 49.7926C99.2584 49.9934 99.446 49.9934 99.6336 50.1941C100.009 50.3949 100.196 50.5957 100.196 50.7965C100.759 51.3988 101.134 52.0011 101.697 52.4027L111.639 67.461L111.827 67.6618L112.765 68.6657Z" fill="#18AAD1"/>
<path d="M112.765 91.9559L111.827 90.3497L111.639 90.1489L82.1875 45.3755L88.5656 50.1942L89.6912 50.9973L111.827 67.8626H112.015L112.765 68.4649C112.765 68.4649 112.952 68.4649 112.952 68.6657L113.89 67.8626L143.717 45.3755L113.703 90.3497L113.515 90.5505L112.765 91.9559Z" fill="#2AD2FF"/>
<path d="M112.765 61.0358L111.827 59.4296L111.639 59.2288L104.323 48.3868L111.639 49.993H111.827L112.765 50.1938L113.703 49.993L120.831 48.186L113.703 59.4296V59.6304L112.765 61.0358Z" fill="#18AAD1"/>
<path d="M143.905 45.1748L134.525 46.5802L130.961 47.1826C128.147 47.5841 125.521 49.1904 123.833 51.8005L113.89 67.0595L113.703 67.2603L112.765 68.6658L113.89 67.4611L114.078 67.2603L112.765 68.6658L138.09 49.3911L143.905 45.1748Z" fill="#18AAD1"/>
<path d="M117.455 13.4521C117.455 22.2862 103.198 26.9041 103.198 36.3406C103.01 38.5492 103.573 40.7577 104.511 42.7655C104.511 42.7655 99.0708 37.1437 99.0708 31.1204C99.0708 25.0971 104.323 16.0622 104.323 16.0622C104.323 20.0777 105.824 21.2824 107.325 21.4831H107.512C109.201 21.4831 110.139 20.0777 110.139 18.0699C110.139 16.0622 108.075 14.0544 108.075 10.0389C108.075 6.22409 112.577 0 112.577 0C115.766 4.01554 117.455 8.63341 117.455 13.4521Z" fill="#2AD2FF"/>
<path d="M113.515 45.5768C109.013 45.5768 105.636 41.762 105.636 37.1441V36.9434C105.636 26.7037 118.955 25.6998 118.955 11.8462C119.331 12.4485 122.895 17.6687 122.895 23.2905C122.895 30.3177 116.704 32.1247 116.704 35.5379C116.704 36.9434 117.267 37.9472 119.143 37.9472C119.331 37.9472 119.518 37.9472 119.706 37.7465C123.27 36.1402 125.709 32.5263 125.896 28.3099C125.896 28.5107 127.772 45.5768 113.515 45.5768Z" fill="#2AD2FF"/>
<path d="M119.331 37.9473C119.518 37.9473 119.706 37.9473 119.893 37.7465C118.018 38.3488 111.077 40.1558 111.077 34.9356C111.077 28.5107 121.394 27.1053 121.394 21.6843C121.394 18.2711 120.644 14.8579 118.955 11.8462C119.331 12.4485 122.895 17.6687 122.895 23.2905C122.895 30.3177 116.704 32.1247 116.704 35.5379C116.892 36.9434 117.642 37.9473 119.331 37.9473Z" fill="#18AAD1"/>
<path d="M113.378 17.0661C113.378 22.0855 107.375 21.684 107 21.4832H107.563C109.251 21.4832 110.189 20.0778 110.189 18.07C110.189 16.0622 108.126 14.0544 108.126 10.0389C108.126 6.2241 112.628 0 112.628 0C111.127 2.61011 110.377 5.42099 110.189 8.23188C110.189 12.8498 113.378 13.2513 113.378 17.0661Z" fill="#18AAD1"/>
<path d="M110.162 105.02L105.824 101.932H111.148L112.923 96.373L114.5 101.932H119.824L115.486 105.02L117.063 110.373L112.725 107.079L108.19 110.373L110.162 105.02Z" fill="#2AD2FF"/>
<path d="M133.338 105.02L129 101.932H134.324L136.099 96.373L137.676 101.932H143L138.662 105.02L140.239 110.373L135.901 107.079L131.366 110.373L133.338 105.02Z" fill="#2AD2FF"/>
<path d="M156.338 105.02L152 101.932H157.324L159.099 96.373L160.676 101.932H166L161.662 105.02L163.239 110.373L158.901 107.079L154.366 110.373L156.338 105.02Z" fill="#2AD2FF"/>
<path d="M86.338 105.02L82 101.932H87.3239L89.0986 96.373L90.6761 101.932H96L91.662 105.02L93.2394 110.373L88.9014 107.079L84.5634 110.373L86.338 105.02Z" fill="#2AD2FF"/>
<path d="M63.338 105.02L59 101.932H64.3239L66.0986 96.373L67.6761 101.932H73L68.662 105.02L70.2394 110.373L65.9014 107.079L61.5634 110.373L63.338 105.02Z" fill="#2AD2FF"/>
<path d="M168.1 160.1H58.7998V178.3H168.1V160.1Z" fill="#0460B5"/>
<path d="M67.2 151H45L49.6 160.1L45 169.2H57.3L57.4 159.3L67.2 151Z" fill="#0460B5"/>
<path d="M159.8 151H181.9L177.3 160.1L181.9 169.2H169.6V159.3L159.8 151Z" fill="#0460B5"/>
<path d="M69.8998 166C70.4998 166.3 70.9998 166.8 71.2998 167.3C71.5998 167.9 71.7998 168.6 71.7998 169.2C71.7998 169.9 71.5998 170.5 71.2998 171.1C70.9998 171.7 70.4998 172.1 69.8998 172.4C69.2998 172.7 68.5998 172.9 67.8998 172.9H64.7998V165.4H67.8998C68.5998 165.5 69.2998 165.6 69.8998 166ZM69.1998 171.4C69.5998 171.2 69.8998 170.9 70.0998 170.5C70.4998 169.7 70.4998 168.7 70.0998 167.9C69.8998 167.5 69.5998 167.2 69.1998 167C68.7998 166.8 68.3998 166.7 67.8998 166.7H66.1998V171.7H67.8998C68.2998 171.7 68.7998 171.6 69.1998 171.4Z" fill="white"/>
<path d="M73 165.5H78.5V166.7H74.5V168.6H78.1V169.8H74.5V171.7H78.7V172.9H73V165.5Z" fill="white"/>
<path d="M83.6998 166.9C83.3998 166.8 82.9998 166.7 82.5998 166.7C82.2998 166.7 81.9998 166.8 81.7998 166.9C81.5998 167 81.4998 167.2 81.4998 167.4C81.4998 167.6 81.5998 167.8 81.6998 167.9C81.7998 168 81.9998 168.2 82.1998 168.2C82.4998 168.3 82.7998 168.4 83.0998 168.5C83.4998 168.6 83.8998 168.8 84.2998 168.9C84.5998 169.1 84.8998 169.3 85.0998 169.6C85.2998 169.9 85.4998 170.3 85.3998 170.8C85.3998 171.2 85.2998 171.7 84.9998 172C84.6998 172.3 84.3998 172.6 83.9998 172.8C83.4998 173 82.9998 173.1 82.4998 173.1C81.8998 173.1 81.2998 173 80.7998 172.8C80.2998 172.6 79.7998 172.3 79.2998 171.9L79.8998 170.7C80.2998 171 80.6998 171.3 81.1998 171.5C81.5998 171.7 82.0998 171.8 82.4998 171.8C82.7998 171.8 83.1998 171.7 83.3998 171.6C83.7998 171.4 83.7998 170.9 83.5998 170.5L83.4998 170.4C83.2998 170.3 83.1998 170.1 82.9998 170.1C82.7998 170 82.4998 169.9 82.0998 169.8C81.6998 169.7 81.2998 169.5 80.8998 169.4C80.5998 169.3 80.2998 169 80.0998 168.8C79.8998 168.5 79.6998 168.1 79.7998 167.7C79.7998 167.3 79.8998 166.9 80.0998 166.6C80.3998 166.3 80.6998 166 81.0998 165.8C81.5998 165.6 82.0998 165.5 82.5998 165.5C83.0998 165.5 83.5998 165.6 83.9998 165.7C84.3998 165.8 84.8998 166 85.2998 166.3L84.6998 167.5C84.4998 167.2 84.0998 167 83.6998 166.9Z" fill="white"/>
<path d="M86.8999 165.5H88.2999V173H86.8999V165.5Z" fill="white"/>
<path d="M95.2 169.2H96.4V172.1C96 172.4 95.5 172.6 95 172.8C94.5 173 94 173.1 93.4 173.1C92.7 173.1 92 172.9 91.4 172.6C90.8 172.3 90.3 171.8 90 171.2C89.6 170.6 89.5 169.9 89.5 169.2C89.5 168.5 89.7 167.8 90 167.3C90.4 166.7 90.9 166.2 91.5 165.9C92.1 165.6 92.8 165.4 93.5 165.4C94 165.4 94.6 165.5 95.1 165.7C95.6 165.9 96.1 166.1 96.4 166.5L95.6 167.6C95.3 167.3 95 167.1 94.6 167C94.2 166.9 93.9 166.8 93.5 166.8C93 166.8 92.6 166.9 92.2 167.1C91 167.8 90.6 169.4 91.3 170.6C91.8 171.4 92.6 171.9 93.5 171.9C93.8 171.9 94 171.9 94.3 171.8C94.6 171.7 94.9 171.6 95.1 171.4L95.2 169.2Z" fill="white"/>
<path d="M103.4 165.5H104.8V173H103.5L99.6002 167.8V173H98.2002V165.5H99.6002L103.5 170.7L103.4 165.5Z" fill="white"/>
<path d="M111.3 173L110 170.8H108V173H106.6V165.5H109.7C110.5 165.4 111.3 165.7 112 166.1C112.5 166.6 112.8 167.3 112.8 168C112.8 168.5 112.7 169 112.4 169.5C112.1 169.9 111.7 170.2 111.3 170.4L113 172.9L111.3 173ZM108 169.5H109.7C110.2 169.5 110.6 169.4 111 169.1C111.3 168.8 111.4 168.5 111.4 168.1C111.4 167.7 111.3 167.3 111 167.1C110.6 166.9 110.2 166.7 109.8 166.8H108V169.5Z" fill="white"/>
<path d="M116.1 171.3C116.5 171.6 117 171.8 117.4 171.8C117.9 171.8 118.4 171.6 118.7 171.3C119 170.9 119.2 170.4 119.2 169.9V165.5H120.6V169.9C120.6 170.5 120.5 171.1 120.2 171.6C119.9 172.1 119.5 172.5 119.1 172.7C118.6 173 118 173.1 117.4 173.1C116.8 173.1 116.2 173 115.6 172.7C115.1 172.5 114.7 172.1 114.5 171.6C114.2 171.1 114.1 170.5 114.1 169.9V165.5H115.5V169.9C115.6 170.4 115.8 170.9 116.1 171.3Z" fill="white"/>
<path d="M126 166.9C125.7 166.8 125.3 166.7 124.9 166.7C124.6 166.7 124.3 166.8 124.1 166.9C123.9 167 123.8 167.2 123.8 167.4C123.8 167.6 123.9 167.8 124 167.9C124.1 168 124.3 168.2 124.5 168.2C124.8 168.3 125.1 168.4 125.4 168.5C125.8 168.6 126.2 168.8 126.6 168.9C126.9 169.1 127.2 169.3 127.4 169.6C127.6 169.9 127.8 170.3 127.7 170.8C127.7 171.2 127.6 171.7 127.3 172C127 172.3 126.7 172.6 126.3 172.8C125.8 173 125.3 173.1 124.8 173.1C124.2 173.1 123.6 173 123.1 172.8C122.6 172.6 122.1 172.3 121.6 171.9L122.2 170.7C122.6 171 123 171.3 123.5 171.5C123.9 171.7 124.4 171.8 124.8 171.8C125.1 171.8 125.5 171.7 125.7 171.6C126.1 171.4 126.1 170.9 125.9 170.5L125.8 170.4C125.6 170.3 125.5 170.1 125.3 170.1C125.1 170 124.8 169.9 124.4 169.8C124 169.7 123.6 169.5 123.2 169.4C122.9 169.3 122.6 169 122.4 168.8C122.2 168.5 122 168.1 122.1 167.7C122.1 167.3 122.2 166.9 122.4 166.6C122.7 166.3 123 166 123.4 165.8C123.9 165.6 124.4 165.5 124.9 165.5C125.4 165.5 125.9 165.6 126.3 165.7C126.7 165.8 127.2 166 127.6 166.3L127 167.5C126.8 167.2 126.4 167 126 166.9Z" fill="white"/>
<path d="M129.2 165.5H130.6V168.7H134.3V165.5H135.7V173H134.3V170H130.6V173H129.2V165.5Z" fill="white"/>
<path d="M138.4 171.7C138.5 171.8 138.6 172 138.6 172.3C138.6 172.5 138.5 172.7 138.4 172.9C138.3 173 138.1 173.1 137.9 173.1C137.7 173.1 137.5 173 137.4 172.9C137.3 172.7 137.2 172.5 137.2 172.3C137.2 172.1 137.3 171.9 137.4 171.7C137.5 171.6 137.7 171.5 137.9 171.5C138.1 171.5 138.3 171.6 138.4 171.7Z" fill="white"/>
<path d="M142.4 168.4C142 168.4 141.6 168.6 141.3 168.9C141 169.2 140.9 169.7 140.9 170.1C140.9 170.6 141 171 141.3 171.3C141.6 171.6 142 171.8 142.4 171.8C143 171.8 143.6 171.6 143.9 171.1L144.8 171.8C144.5 172.2 144.2 172.5 143.8 172.7C143.3 172.9 142.8 173 142.3 173C141.8 173 141.3 172.9 140.8 172.6C140.4 172.4 140 172 139.8 171.6C139.3 170.7 139.3 169.5 139.8 168.6C140 168.2 140.4 167.8 140.8 167.6C141.3 167.4 141.8 167.2 142.3 167.2C142.8 167.2 143.3 167.3 143.7 167.5C144.1 167.7 144.4 167.9 144.7 168.3L143.9 169.1C143.6 168.7 143 168.4 142.4 168.4Z" fill="white"/>
<path d="M149.9 167.6C150.3 167.8 150.7 168.2 151 168.6C151.3 169.1 151.4 169.6 151.4 170.1C151.4 170.6 151.3 171.2 151 171.6C150.7 172 150.4 172.4 149.9 172.6C149.4 172.8 148.9 173 148.3 173C147.7 173 147.2 172.9 146.7 172.6C146.3 172.4 145.9 172 145.6 171.6C145.3 171.1 145.2 170.6 145.2 170.1C145.2 169.6 145.3 169 145.6 168.6C145.9 168.2 146.2 167.8 146.7 167.6C147.2 167.3 147.7 167.2 148.3 167.2C148.9 167.2 149.4 167.3 149.9 167.6ZM147.2 168.9C146.6 169.6 146.6 170.7 147.2 171.4C147.5 171.7 147.9 171.9 148.4 171.9C148.8 171.9 149.3 171.7 149.6 171.4C150.2 170.7 150.2 169.6 149.6 168.9C149.3 168.6 148.9 168.4 148.4 168.4C147.9 168.4 147.5 168.5 147.2 168.9Z" fill="white"/>
<path d="M161.6 167.8C162 168.2 162.2 168.8 162.2 169.4V173H160.8V169.8C160.8 169.4 160.7 169.1 160.5 168.8C160.3 168.6 159.9 168.4 159.6 168.4C159.2 168.4 158.8 168.6 158.5 168.9C158.2 169.2 158.1 169.6 158.1 170.1V172.9H156.7V169.8C156.7 169.4 156.6 169.1 156.4 168.8C156.2 168.6 155.8 168.4 155.5 168.4C155.1 168.4 154.7 168.6 154.4 168.9C154.1 169.2 154 169.7 154.1 170.1V172.9H152.7V167.2H154.1V168.3C154.8 167.2 156.3 166.9 157.4 167.5C157.7 167.7 158 168.1 158.1 168.5C158.4 167.6 159.3 167.1 160.2 167.1C160.7 167.1 161.2 167.4 161.6 167.8Z" fill="white"/>
<path d="M104.888 193V192.112H100.964C103.196 190.348 104.852 188.86 104.852 187.228C104.852 185.632 103.496 184.876 102.164 184.876C101.036 184.876 99.9921 185.32 99.3801 186.136L99.9921 186.772C100.46 186.172 101.204 185.764 102.164 185.764C102.992 185.764 103.844 186.196 103.844 187.228C103.844 188.608 102.272 189.94 99.3921 192.196V193H104.888ZM109.471 193.144C111.655 193.144 112.531 190.948 112.531 189.004C112.531 187.048 111.655 184.876 109.471 184.876C107.275 184.876 106.411 187.048 106.411 189.004C106.411 190.948 107.275 193.144 109.471 193.144ZM109.471 192.256C107.947 192.256 107.431 190.6 107.431 189.004C107.431 187.408 107.947 185.764 109.471 185.764C110.995 185.764 111.511 187.408 111.511 189.004C111.511 190.6 110.995 192.256 109.471 192.256ZM119.29 193V192.112H115.366C117.598 190.348 119.254 188.86 119.254 187.228C119.254 185.632 117.898 184.876 116.566 184.876C115.438 184.876 114.394 185.32 113.782 186.136L114.394 186.772C114.862 186.172 115.606 185.764 116.566 185.764C117.394 185.764 118.246 186.196 118.246 187.228C118.246 188.608 116.674 189.94 113.794 192.196V193H119.29ZM126.345 193V192.112H122.421C124.653 190.348 126.309 188.86 126.309 187.228C126.309 185.632 124.953 184.876 123.621 184.876C122.493 184.876 121.449 185.32 120.837 186.136L121.449 186.772C121.917 186.172 122.661 185.764 123.621 185.764C124.449 185.764 125.301 186.196 125.301 187.228C125.301 188.608 123.729 189.94 120.849 192.196V193H126.345Z" fill="black"/>
<path d="M104.888 193V193.25H105.138V193H104.888ZM104.888 192.112H105.138V191.862H104.888V192.112ZM100.964 192.112L100.809 191.916L100.245 192.362H100.964V192.112ZM99.3801 186.136L99.1801 185.986L99.0526 186.156L99.2 186.309L99.3801 186.136ZM99.9921 186.772L99.812 186.945L100.012 187.153L100.189 186.926L99.9921 186.772ZM99.3921 192.196L99.238 191.999L99.1421 192.074V192.196H99.3921ZM99.3921 193H99.1421V193.25H99.3921V193ZM105.138 193V192.112H104.638V193H105.138ZM104.888 191.862H100.964V192.362H104.888V191.862ZM101.119 192.308C102.235 191.427 103.224 190.601 103.934 189.785C104.643 188.969 105.102 188.132 105.102 187.228H104.602C104.602 187.956 104.233 188.679 103.557 189.456C102.881 190.233 101.926 191.033 100.809 191.916L101.119 192.308ZM105.102 187.228C105.102 186.35 104.725 185.69 104.16 185.255C103.602 184.827 102.874 184.626 102.164 184.626V185.126C102.787 185.126 103.402 185.303 103.855 185.652C104.301 185.994 104.602 186.51 104.602 187.228H105.102ZM102.164 184.626C100.975 184.626 99.8489 185.094 99.1801 185.986L99.5801 186.286C100.135 185.546 101.097 185.126 102.164 185.126V184.626ZM99.2 186.309L99.812 186.945L100.172 186.599L99.5603 185.963L99.2 186.309ZM100.189 186.926C100.609 186.387 101.28 186.014 102.164 186.014V185.514C101.128 185.514 100.311 185.957 99.795 186.618L100.189 186.926ZM102.164 186.014C102.539 186.014 102.902 186.113 103.165 186.309C103.418 186.499 103.594 186.791 103.594 187.228H104.094C104.094 186.633 103.844 186.193 103.464 185.909C103.094 185.631 102.617 185.514 102.164 185.514V186.014ZM103.594 187.228C103.594 187.818 103.259 188.435 102.517 189.211C101.779 189.983 100.681 190.869 99.238 191.999L99.5463 192.393C100.983 191.267 102.111 190.359 102.879 189.556C103.643 188.757 104.094 188.018 104.094 187.228H103.594ZM99.1421 192.196V193H99.6421V192.196H99.1421ZM99.3921 193.25H104.888V192.75H99.3921V193.25ZM109.471 193.394C110.663 193.394 111.502 192.788 112.032 191.935C112.556 191.092 112.781 190.008 112.781 189.004H112.281C112.281 189.944 112.068 190.93 111.607 191.671C111.153 192.402 110.462 192.894 109.471 192.894V193.394ZM112.781 189.004C112.781 187.994 112.556 186.912 112.032 186.074C111.502 185.225 110.662 184.626 109.471 184.626V185.126C110.464 185.126 111.154 185.613 111.608 186.339C112.068 187.076 112.281 188.058 112.281 189.004H112.781ZM109.471 184.626C108.274 184.626 107.434 185.225 106.905 186.074C106.383 186.913 106.161 187.995 106.161 189.004H106.661C106.661 188.057 106.871 187.075 107.33 186.339C107.781 185.613 108.472 185.126 109.471 185.126V184.626ZM106.161 189.004C106.161 190.007 106.383 191.092 106.905 191.935C107.433 192.788 108.273 193.394 109.471 193.394V192.894C108.473 192.894 107.782 192.402 107.33 191.671C106.871 190.93 106.661 189.945 106.661 189.004H106.161ZM109.471 192.006C108.823 192.006 108.388 191.664 108.101 191.113C107.808 190.549 107.681 189.782 107.681 189.004H107.181C107.181 189.822 107.312 190.681 107.658 191.344C108.01 192.02 108.595 192.506 109.471 192.506V192.006ZM107.681 189.004C107.681 188.226 107.808 187.462 108.101 186.901C108.387 186.354 108.822 186.014 109.471 186.014V185.514C108.596 185.514 108.01 185.996 107.658 186.67C107.312 187.33 107.181 188.186 107.181 189.004H107.681ZM109.471 186.014C110.12 186.014 110.554 186.354 110.841 186.901C111.134 187.462 111.261 188.226 111.261 189.004H111.761C111.761 188.186 111.63 187.33 111.284 186.67C110.931 185.996 110.346 185.514 109.471 185.514V186.014ZM111.261 189.004C111.261 189.782 111.134 190.549 110.841 191.113C110.554 191.664 110.119 192.006 109.471 192.006V192.506C110.347 192.506 110.932 192.02 111.284 191.344C111.63 190.681 111.761 189.822 111.761 189.004H111.261ZM119.29 193V193.25H119.54V193H119.29ZM119.29 192.112H119.54V191.862H119.29V192.112ZM115.366 192.112L115.211 191.916L114.647 192.362H115.366V192.112ZM113.782 186.136L113.582 185.986L113.455 186.156L113.602 186.309L113.782 186.136ZM114.394 186.772L114.214 186.945L114.414 187.153L114.592 186.926L114.394 186.772ZM113.794 192.196L113.64 191.999L113.544 192.074V192.196H113.794ZM113.794 193H113.544V193.25H113.794V193ZM119.54 193V192.112H119.04V193H119.54ZM119.29 191.862H115.366V192.362H119.29V191.862ZM115.521 192.308C116.637 191.427 117.626 190.601 118.336 189.785C119.045 188.969 119.504 188.132 119.504 187.228H119.004C119.004 187.956 118.636 188.679 117.959 189.456C117.283 190.233 116.328 191.033 115.211 191.916L115.521 192.308ZM119.504 187.228C119.504 186.35 119.127 185.69 118.562 185.255C118.005 184.827 117.276 184.626 116.566 184.626V185.126C117.189 185.126 117.804 185.303 118.258 185.652C118.704 185.994 119.004 186.51 119.004 187.228H119.504ZM116.566 184.626C115.377 184.626 114.251 185.094 113.582 185.986L113.982 186.286C114.538 185.546 115.5 185.126 116.566 185.126V184.626ZM113.602 186.309L114.214 186.945L114.575 186.599L113.963 185.963L113.602 186.309ZM114.592 186.926C115.012 186.387 115.683 186.014 116.566 186.014V185.514C115.53 185.514 114.713 185.957 114.197 186.618L114.592 186.926ZM116.566 186.014C116.942 186.014 117.305 186.113 117.567 186.309C117.82 186.499 117.996 186.791 117.996 187.228H118.496C118.496 186.633 118.246 186.193 117.867 185.909C117.496 185.631 117.019 185.514 116.566 185.514V186.014ZM117.996 187.228C117.996 187.818 117.661 188.435 116.92 189.211C116.181 189.983 115.083 190.869 113.64 191.999L113.949 192.393C115.385 191.267 116.513 190.359 117.281 189.556C118.046 188.757 118.496 188.018 118.496 187.228H117.996ZM113.544 192.196V193H114.044V192.196H113.544ZM113.794 193.25H119.29V192.75H113.794V193.25ZM126.345 193V193.25H126.595V193H126.345ZM126.345 192.112H126.595V191.862H126.345V192.112ZM122.421 192.112L122.266 191.916L121.702 192.362H122.421V192.112ZM120.837 186.136L120.637 185.986L120.51 186.156L120.657 186.309L120.837 186.136ZM121.449 186.772L121.269 186.945L121.469 187.153L121.646 186.926L121.449 186.772ZM120.849 192.196L120.695 191.999L120.599 192.074V192.196H120.849ZM120.849 193H120.599V193.25H120.849V193ZM126.595 193V192.112H126.095V193H126.595ZM126.345 191.862H122.421V192.362H126.345V191.862ZM122.576 192.308C123.692 191.427 124.681 190.601 125.391 189.785C126.1 188.969 126.559 188.132 126.559 187.228H126.059C126.059 187.956 125.69 188.679 125.014 189.456C124.338 190.233 123.383 191.033 122.266 191.916L122.576 192.308ZM126.559 187.228C126.559 186.35 126.182 185.69 125.617 185.255C125.059 184.827 124.331 184.626 123.621 184.626V185.126C124.244 185.126 124.859 185.303 125.312 185.652C125.758 185.994 126.059 186.51 126.059 187.228H126.559ZM123.621 184.626C122.432 184.626 121.306 185.094 120.637 185.986L121.037 186.286C121.592 185.546 122.554 185.126 123.621 185.126V184.626ZM120.657 186.309L121.269 186.945L121.629 186.599L121.017 185.963L120.657 186.309ZM121.646 186.926C122.066 186.387 122.737 186.014 123.621 186.014V185.514C122.585 185.514 121.768 185.957 121.252 186.618L121.646 186.926ZM123.621 186.014C123.996 186.014 124.359 186.113 124.622 186.309C124.875 186.499 125.051 186.791 125.051 187.228H125.551C125.551 186.633 125.301 186.193 124.922 185.909C124.551 185.631 124.074 185.514 123.621 185.514V186.014ZM125.051 187.228C125.051 187.818 124.716 188.435 123.974 189.211C123.236 189.983 122.138 190.869 120.695 191.999L121.003 192.393C122.44 191.267 123.568 190.359 124.336 189.556C125.1 188.757 125.551 188.018 125.551 187.228H125.051ZM120.599 192.196V193H121.099V192.196H120.599ZM120.849 193.25H126.345V192.75H120.849V193.25Z" fill="black"/>
<line x1="77" y1="189.5" x2="92" y2="189.5" stroke="black"/>
<line x1="134" y1="189.5" x2="149" y2="189.5" stroke="black"/>
</svg>
